<?xml version="1.0" standalone="no"?>
<!DOCTYPE svg PUBLIC "-//W3C//DTD SVG 20010904//EN"
 "http://www.w3.org/TR/2001/REC-SVG-20010904/DTD/svg10.dtd">
<svg version="1.0" xmlns="http://www.w3.org/2000/svg"
 width="600.000000pt" height="600.000000pt" viewBox="0 0 600.000000 600.000000"
 preserveAspectRatio="xMidYMid meet">
<metadata>
Created by potrace 1.11, written by Peter Selinger 2001-2013
</metadata>
<g transform="translate(0.000000,600.000000) scale(0.100000,-0.100000)"
fill="#000000" stroke="none">
<path d="M1552 4178 c-7 -7 -12 -18 -12 -25 0 -7 -9 -13 -20 -13 -30 0 -100
-30 -147 -63 -50 -35 -97 -99 -115 -155 -11 -37 -17 -42 -43 -42 -27 -1 -28
-2 -12 -14 35 -27 149 -40 347 -41 247 0 367 12 391 41 10 12 -38 14 -311 14
-178 0 -321 2 -319 4 3 3 362 16 537 19 51 1 54 15 14 78 -51 80 -139 142
-221 155 -30 5 -41 11 -41 24 0 10 -7 21 -16 24 -20 8 -18 8 -32 -6z"/>
<path d="M856 3957 c-17 -17 -44 -40 -59 -50 -15 -10 -32 -30 -38 -45 -15 -38
11 -89 48 -98 50 -10 53 -13 53 -43 0 -16 4 -32 9 -35 8 -5 209 42 220 51 3 2
-1 19 -8 39 -12 33 -11 37 13 59 19 17 26 34 26 60 0 50 -28 75 -84 75 -25 0
-48 5 -51 10 -3 6 -27 10 -52 10 -38 0 -51 -5 -77 -33z"/>
<path d="M1440 3795 c-10 -13 -9 -15 9 -15 13 0 26 -11 37 -32 21 -41 31 -48
72 -48 21 0 32 5 32 14 0 21 47 54 86 62 20 4 33 11 31 18 -5 13 -107 12 -147
-2 -18 -7 -34 -6 -51 4 -32 18 -54 17 -69 -1z"/>
<path d="M990 3691 c-126 -42 -120 -39 -109 -69 23 -59 77 -94 147 -94 51 0
82 25 82 65 0 11 7 29 17 39 15 17 15 20 -5 41 -12 13 -22 29 -22 35 0 17 -14
15 -110 -17z"/>
<path d="M1476 3637 c-38 -101 -124 -159 -266 -179 -75 -11 -79 -13 -74 -35 7
-25 -14 -163 -24 -162 -4 0 -19 26 -34 58 -54 114 -139 172 -263 177 -96 4
-173 -27 -236 -94 -62 -68 -84 -137 -76 -243 4 -44 11 -88 17 -99 10 -19 11
-19 58 1 l47 20 0 57 c0 42 6 67 23 94 36 59 120 90 190 72 30 -9 28 -24 -3
-18 -30 5 -31 -1 -9 -92 32 -139 14 -298 -41 -356 -42 -45 -82 -60 -155 -60
-63 1 -151 23 -178 44 -9 8 -17 4 -31 -13 -10 -13 -51 -62 -90 -108 -39 -47
-71 -90 -71 -97 0 -18 33 -34 70 -34 36 0 87 24 112 52 17 20 18 19 80 -5 107
-42 135 -47 243 -47 132 0 245 40 334 120 36 32 56 33 28 2 -10 -10 -17 -23
-17 -28 0 -5 26 -22 58 -39 112 -59 225 -195 271 -327 10 -29 23 -52 27 -51 9
1 265 142 273 149 2 2 -10 17 -27 34 -25 25 -38 30 -77 30 -25 0 -55 -5 -66
-10 -10 -6 -19 -7 -20 -3 -7 70 -50 191 -91 260 -46 77 -128 173 -177 208 -31
22 -40 35 -36 50 14 56 15 207 2 289 -11 72 -11 85 0 70 7 -10 13 -24 13 -31
0 -35 163 42 228 106 55 56 101 151 109 225 l6 56 -55 0 -55 0 -17 -43z"/>
<path d="M1085 3516 c-12 -9 -32 -12 -52 -9 -30 5 -33 3 -33 -19 0 -34 9 -39
36 -21 16 10 36 14 59 10 37 -6 38 -5 29 31 -7 26 -13 27 -39 8z"/>
<path d="M3790 3503 c-67 -24 -80 -35 -74 -62 9 -34 7 -33 38 -21 23 9 30 6
52 -17 43 -47 42 -64 -22 -207 -53 -118 -62 -131 -87 -134 -23 -3 -27 -8 -27
-33 0 -16 5 -29 10 -30 6 0 33 0 60 0 126 0 120 -2 120 30 0 20 -6 31 -17 33
-32 6 13 36 55 36 37 1 40 -1 62 -50 47 -104 149 -178 245 -178 63 0 140 33
131 56 -3 9 -6 20 -6 25 0 5 -17 7 -38 3 -32 -5 -44 -2 -68 19 l-29 25 131 1
c141 1 192 12 250 56 103 78 103 282 0 360 -61 46 -106 55 -282 55 l-163 0 1
-30 c1 -25 5 -30 25 -30 l23 0 0 -175 c0 -140 -3 -175 -13 -175 -15 0 -17 4
-98 187 -76 175 -108 220 -176 249 -33 14 -75 17 -103 7z m638 -136 c32 -26
50 -131 33 -194 -14 -51 -38 -80 -73 -89 l-28 -6 0 157 0 157 27 -7 c16 -4 34
-12 41 -18z"/>
<path d="M2305 3484 c-19 -8 -83 -13 -180 -13 -82 0 -156 -1 -162 -1 -8 0 -13
-13 -13 -30 0 -23 4 -30 20 -30 18 0 20 -7 21 -90 2 -254 2 -260 -20 -260 -19
0 -36 -46 -21 -55 7 -4 147 -8 233 -6 36 1 38 3 35 29 -2 19 -9 28 -25 30 -21
3 -23 9 -23 68 l0 65 33 -3 c26 -2 34 -9 42 -35 7 -27 14 -33 37 -33 l27 0 -2
90 c-1 64 2 91 11 95 9 3 12 -13 12 -63 0 -120 56 -200 165 -235 66 -21 346
-22 420 -2 103 29 168 118 168 230 0 102 -52 184 -142 223 -44 19 -373 27
-436 11 -56 -15 -123 -65 -143 -106 l-17 -36 -5 85 -5 85 -30 -13z m-36 -119
c15 -14 14 -16 -6 -21 -13 -4 -20 -10 -17 -16 11 -17 -23 -55 -48 -53 -21 1
-23 7 -26 60 l-3 58 42 -6 c23 -3 49 -13 58 -22z"/>
<path d="M5307 3483 c-4 -3 -7 -12 -7 -20 0 -14 -157 -369 -173 -390 -5 -7
-18 -13 -29 -13 -18 0 -17 2 6 33 66 87 54 241 -26 313 -57 53 -82 58 -270 62
l-178 4 0 -31 c0 -24 4 -31 20 -31 17 0 20 -7 21 -42 1 -43 0 -243 -1 -285 0
-16 -6 -23 -19 -23 -25 0 -36 -60 -12 -61 9 0 80 0 159 0 145 0 202 9 237 35
28 21 35 20 35 -8 0 -22 5 -24 53 -28 28 -1 71 -2 95 0 39 3 42 5 42 33 0 19
-5 29 -15 29 -13 0 -14 4 -5 20 8 15 20 19 55 18 45 -1 69 -23 43 -39 -7 -4
-13 -19 -14 -33 -1 -25 2 -26 50 -27 103 -2 218 1 225 6 5 2 9 16 9 29 0 19
-6 26 -26 28 -28 3 -31 9 -161 281 -53 110 -76 147 -89 147 -10 0 -22 -3 -25
-7z m-398 -109 c50 -35 67 -153 35 -233 -16 -40 -30 -51 -71 -58 l-23 -4 0
156 c0 142 2 155 18 155 10 0 28 -7 41 -16z"/>
<path d="M3060 3441 c0 -24 4 -31 20 -31 11 0 20 -6 21 -12 1 -15 1 -307 0
-325 -1 -7 -9 -13 -20 -13 -13 0 -20 -9 -23 -30 -4 -29 -3 -30 36 -31 146 -2
285 3 315 11 202 55 232 334 48 433 -38 20 -59 22 -219 25 l-178 4 0 -31z
m268 -62 c83 -29 83 -240 0 -292 -8 -6 -23 -7 -32 -4 -14 6 -16 27 -16 157 0
82 4 150 9 150 4 0 22 -5 39 -11z"/>
<path d="M591 3049 c-48 -28 -50 -30 -40 -57 24 -63 65 -78 112 -42 46 36 45
110 -2 123 -11 2 -41 -8 -70 -24z"/>
<path d="M5197 2871 c-13 -14 -29 -41 -35 -60 -15 -43 -16 -131 -1 -131 5 0 8
-4 5 -8 -3 -5 13 -27 35 -50 21 -23 39 -40 39 -37 0 8 25 -13 82 -68 27 -26
46 -51 44 -56 -3 -4 1 -8 9 -8 8 0 15 3 15 7 0 4 23 31 50 61 28 30 50 49 50
44 0 -6 4 -5 8 1 4 7 27 28 50 48 24 20 41 36 36 36 -4 0 1 9 10 19 20 22 21
121 2 156 -22 39 -68 75 -97 75 -31 0 -93 -33 -82 -43 3 -4 1 -7 -5 -7 -6 0
-14 -9 -17 -20 -7 -23 -25 -27 -25 -5 0 8 -4 15 -10 15 -5 0 -10 8 -10 17 0 9
-3 13 -6 10 -4 -4 -15 2 -25 14 -25 29 -90 24 -122 -10z"/>
<path d="M3247 2848 c-9 -5 -17 -15 -17 -23 0 -7 -6 -16 -12 -19 -10 -5 -10
-7 0 -12 14 -7 17 -74 2 -74 -5 0 -10 -4 -10 -9 0 -5 11 -8 25 -8 14 0 28 3
31 8 3 5 0 9 -5 9 -6 0 -11 18 -11 41 0 24 4 38 10 34 6 -3 10 -1 10 4 0 6 -4
11 -10 11 -5 0 -10 7 -10 15 0 8 5 15 10 15 6 0 10 -4 10 -10 0 -5 5 -10 10
-10 15 0 12 27 -3 33 -7 3 -21 1 -30 -5z"/>
<path d="M2204 2833 c9 -29 10 -86 2 -110 -7 -22 -5 -23 46 -21 29 1 56 7 60
13 5 6 11 6 20 -3 15 -15 48 -16 48 -1 0 5 -4 8 -9 4 -5 -3 -13 0 -17 6 -3 6
0 15 7 20 23 15 37 10 32 -10 -6 -22 14 -38 29 -23 6 6 6 12 -1 16 -5 4 -8 12
-5 20 3 7 0 25 -6 40 -8 23 -15 27 -42 24 -17 -2 -33 -9 -36 -16 -3 -11 0 -12
14 -4 23 11 44 5 44 -13 0 -12 -51 -30 -76 -26 -7 1 -14 -5 -18 -14 -3 -9 -18
-15 -34 -15 -25 0 -29 4 -27 28 1 18 7 27 18 27 9 0 17 5 16 10 0 6 -8 9 -19
7 -14 -2 -18 3 -17 17 1 12 6 21 12 22 5 0 18 2 28 4 9 2 17 -3 17 -10 0 -8 5
-17 10 -20 6 -4 10 5 10 19 0 25 -3 26 -56 26 -48 0 -55 -2 -50 -17z"/>
<path d="M2465 2835 c-5 -11 -13 -24 -19 -28 -8 -6 -7 -10 2 -14 6 -2 12 -22
12 -43 0 -40 23 -61 44 -40 7 7 5 10 -7 10 -13 0 -17 9 -17 40 0 31 3 38 15
34 8 -4 15 -1 15 5 0 6 -6 11 -14 11 -8 0 -16 10 -19 23 -3 21 -4 21 -12 2z"/>
<path d="M3105 2835 c-5 -11 -13 -24 -19 -28 -8 -6 -7 -10 2 -14 6 -2 12 -22
12 -43 0 -40 23 -61 44 -40 7 7 5 10 -7 10 -13 0 -17 9 -17 35 0 24 5 35 15
35 8 0 15 5 15 10 0 6 -6 10 -14 10 -8 0 -16 10 -19 23 -3 21 -4 21 -12 2z"/>
<path d="M3730 2840 c0 -5 4 -10 8 -10 10 0 8 -87 -2 -111 -6 -13 -1 -16 17
-16 23 0 24 2 19 44 -5 43 -4 45 19 41 21 -3 24 -8 24 -43 0 -30 4 -40 18 -43
9 -2 17 1 17 7 0 6 -4 11 -8 11 -5 0 -8 16 -7 35 2 40 -15 60 -45 52 -19 -5
-24 3 -21 31 1 6 -7 12 -19 12 -11 0 -20 -4 -20 -10z"/>
<path d="M4096 2828 c8 -24 7 -82 -2 -109 -3 -12 2 -16 21 -16 25 0 33 11 17
21 -5 3 -8 32 -8 66 2 52 -1 60 -17 60 -15 0 -17 -5 -11 -22z"/>
<path d="M4175 2835 c-5 -11 -13 -24 -19 -28 -8 -6 -7 -10 2 -14 6 -2 12 -22
12 -43 0 -40 23 -61 44 -40 7 7 5 10 -8 10 -14 0 -17 7 -14 38 2 23 8 36 16
35 6 -2 12 2 12 7 0 6 -6 10 -14 10 -8 0 -16 10 -19 23 -3 21 -4 21 -12 2z"/>
<path d="M4230 2841 c0 -6 4 -12 8 -15 10 -6 8 -83 -3 -108 -6 -15 -2 -18 19
-16 26 2 32 9 19 21 -15 15 -8 57 10 63 25 8 30 1 31 -42 1 -28 6 -38 19 -40
14 -2 16 2 11 19 -4 12 -8 32 -10 44 -4 36 -15 45 -44 40 -24 -5 -27 -3 -22
19 3 19 0 24 -17 24 -11 0 -21 -4 -21 -9z"/>
<path d="M4555 2833 c10 -23 11 -82 2 -109 -6 -18 -4 -21 18 -21 24 0 33 11
17 21 -5 3 -8 15 -6 28 1 13 3 26 3 31 1 4 10 7 21 7 17 0 20 -7 20 -39 0 -22
5 -43 10 -46 15 -9 32 4 23 18 -4 7 -8 21 -9 33 -2 42 -13 56 -41 52 -24 -3
-28 0 -26 20 2 16 -2 22 -18 22 -16 0 -19 -4 -14 -17z"/>
<path d="M5013 2815 c-6 -14 -7 -23 -2 -19 5 3 9 -13 9 -35 0 -31 5 -43 21
-51 23 -13 41 -4 20 9 -20 13 -25 71 -6 71 20 0 19 6 -5 30 -25 25 -23 25 -37
-5z"/>
<path d="M2581 2801 c-20 -13 -7 -39 23 -47 13 -3 27 -12 30 -19 7 -19 -21
-27 -38 -10 -18 19 -26 19 -26 1 0 -26 59 -36 79 -12 17 20 5 40 -31 54 -22 8
-29 15 -22 22 12 12 44 3 44 -12 0 -5 4 -7 10 -3 5 3 7 12 3 20 -6 16 -50 20
-72 6z"/>
<path d="M2675 2791 c11 -27 13 -61 4 -67 -18 -11 -8 -24 16 -22 26 2 32 12
15 23 -5 3 -8 16 -6 28 3 12 5 25 5 30 1 4 10 7 21 7 17 0 20 -7 20 -43 0 -36
3 -43 20 -44 21 -2 27 11 10 22 -17 11 -11 54 9 64 23 13 31 -2 31 -54 0 -28
4 -33 20 -32 20 1 29 17 10 17 -5 0 -10 15 -10 33 0 17 -4 37 -8 43 -4 6 -41
11 -85 11 -67 0 -77 -2 -72 -16z"/>
<path d="M2877 2803 c-15 -14 -6 -22 17 -13 18 6 28 5 36 -5 12 -15 7 -19 -33
-29 -22 -5 -28 -12 -25 -29 3 -19 9 -22 51 -22 27 0 51 3 53 7 3 4 0 8 -5 8
-6 0 -11 15 -11 33 0 18 -5 38 -12 45 -13 13 -60 16 -71 5z m63 -62 c0 -9 -24
-21 -41 -21 -16 0 -10 18 9 23 28 8 32 7 32 -2z"/>
<path d="M2980 2799 c0 -5 5 -9 11 -9 8 0 10 -15 7 -45 -5 -39 -3 -44 13 -42
21 4 38 17 21 17 -7 0 -12 15 -12 36 0 34 2 36 25 30 18 -5 25 -2 25 8 0 10
-13 14 -45 14 -25 0 -45 -4 -45 -9z"/>
<path d="M3316 2794 c-20 -20 -20 -43 0 -72 18 -27 55 -29 77 -4 34 37 11 92
-38 92 -13 0 -31 -7 -39 -16z m71 -20 c8 -20 -8 -48 -30 -52 -19 -4 -39 30
-31 52 8 21 53 21 61 0z"/>
<path d="M3425 2792 c13 -33 14 -56 4 -69 -7 -7 -10 -13 -8 -14 48 -9 47 -11
41 37 -4 42 -3 45 16 42 12 -1 21 2 22 7 0 6 -18 11 -41 12 -36 3 -40 1 -34
-15z"/>
<path d="M3577 2803 c-14 -13 -6 -23 11 -15 9 5 23 7 30 5 17 -7 15 -33 -4
-33 -8 0 -24 -5 -35 -10 -34 -19 -8 -45 45 -45 45 -1 54 4 39 19 -4 4 -8 17
-9 30 -2 42 -12 56 -42 56 -16 0 -32 -3 -35 -7z m58 -62 c6 -11 -33 -26 -43
-16 -4 3 0 10 8 15 19 12 27 12 35 1z"/>
<path d="M3874 2785 c-14 -21 -15 -31 -6 -51 14 -30 33 -38 67 -30 36 9 31 24
-7 22 -22 -1 -33 4 -36 15 -2 12 4 15 27 11 35 -5 52 18 31 43 -19 23 -57 18
-76 -10z m64 -3 c2 -7 -7 -12 -22 -12 -27 0 -35 15 -13 23 17 7 30 3 35 -11z"/>
<path d="M3987 2804 c-14 -14 -7 -25 11 -16 21 12 42 5 42 -14 0 -8 -10 -14
-24 -14 -13 0 -29 -7 -36 -15 -21 -25 5 -45 54 -42 22 2 40 5 39 8 -8 20 -13
38 -15 64 -3 25 -8 30 -33 33 -17 2 -34 0 -38 -4z m53 -58 c0 -2 -3 -11 -6
-20 -5 -12 -10 -13 -26 -5 -17 9 -18 13 -7 20 15 9 39 12 39 5z"/>
<path d="M4392 2754 c30 -54 30 -55 9 -61 -27 -7 -27 -23 0 -23 16 0 27 14 46
60 15 33 30 60 35 60 4 0 8 5 8 10 0 6 -12 10 -26 10 -19 0 -24 -4 -20 -17 3
-10 -1 -29 -9 -43 l-13 -25 -8 30 c-5 17 -7 36 -6 43 2 7 -7 12 -22 12 l-24 0
30 -56z"/>
<path d="M4696 2794 c-22 -21 -20 -57 3 -78 21 -19 62 -18 68 0 2 7 -5 10 -20
7 -14 -3 -29 2 -36 11 -14 17 -5 21 47 16 15 -1 22 4 22 17 0 41 -53 58 -84
27z m64 -15 c0 -5 -15 -9 -32 -9 -31 1 -32 2 -15 15 19 14 47 10 47 -6z"/>
<path d="M4801 2801 c-7 -5 -9 -11 -4 -14 5 -3 15 -2 23 3 15 9 40 3 40 -11 0
-5 -16 -15 -35 -23 -31 -13 -48 -44 -27 -47 30 -6 94 -4 98 3 3 4 0 8 -5 8 -6
0 -11 13 -11 29 0 16 -3 36 -6 45 -7 17 -50 21 -73 7z m59 -66 c0 -10 -10 -15
-27 -15 -27 1 -27 1 -9 15 25 19 36 19 36 0z"/>
<path d="M4915 2754 c0 -49 2 -53 23 -51 22 1 29 12 13 21 -4 3 -8 18 -7 33 1
23 5 28 24 26 13 -2 22 3 22 11 0 10 -11 15 -37 14 l-38 0 0 -54z"/>
</g>
</svg>
